<?xml version="1.0" standalone="no"?>
<!DOCTYPE svg PUBLIC "-//W3C//DTD SVG 20010904//EN"
 "http://www.w3.org/TR/2001/REC-SVG-20010904/DTD/svg10.dtd">
<svg version="1.0" xmlns="http://www.w3.org/2000/svg"
 width="55.000000pt" height="60.000000pt" viewBox="0 0 55.000000 60.000000"
 preserveAspectRatio="xMidYMid meet">

<g transform="translate(0.000000,60.000000) scale(0.100000,-0.100000)"
fill="#000000" stroke="none">
<path d="M230 504 c-34 -16 -34 -16 -12 -25 13 -5 21 -13 17 -18 -9 -15 32
-32 60 -25 14 3 25 12 25 20 0 7 8 17 17 22 14 8 12 12 -15 26 -38 20 -47 19
-92 0z"/>
<path d="M159 473 c-5 -29 -3 -93 4 -93 4 0 7 6 8 13 0 6 2 27 3 45 2 18 0 35
-5 38 -5 3 -10 2 -10 -3z"/>
<path d="M385 473 c-11 -3 -11 -81 0 -91 11 -11 16 7 13 50 -2 25 -8 43 -13
41z"/>
<path d="M410 415 c0 -8 5 -15 10 -15 6 0 15 -10 20 -22 9 -23 9 -23 9 2 1 15
-7 30 -19 38 -17 10 -20 10 -20 -3z"/>
<path d="M121 370 c0 -27 4 -52 9 -55 6 -4 10 16 10 49 0 69 -17 75 -19 6z"/>
<path d="M85 380 c4 -6 11 -8 16 -5 14 9 11 15 -7 15 -8 0 -12 -5 -9 -10z"/>
<path d="M354 374 c1 -14 -12 -17 -74 -18 -41 -1 -81 2 -87 7 -9 7 -13 4 -13
-7 0 -14 14 -16 95 -15 86 1 95 2 95 19 0 10 -4 21 -9 24 -5 3 -8 -1 -7 -10z"/>
<path d="M90 335 c0 -8 2 -15 4 -15 2 0 6 7 10 15 3 8 1 15 -4 15 -6 0 -10 -7
-10 -15z"/>
<path d="M442 337 c-7 -8 -7 -18 -2 -27 8 -12 10 -10 10 8 0 13 4 21 9 17 5
-3 7 -31 4 -62 -4 -36 -3 -54 4 -50 5 3 11 33 12 67 2 46 -1 60 -12 60 -8 0
-19 -6 -25 -13z"/>
<path d="M412 320 c0 -14 2 -19 5 -12 2 6 2 18 0 25 -3 6 -5 1 -5 -13z"/>
<path d="M165 310 c4 -14 9 -37 12 -52 6 -34 23 -37 23 -5 0 12 7 32 15 44 9
13 11 24 6 28 -5 3 -14 -3 -20 -12 -9 -17 -11 -17 -26 2 -16 20 -16 19 -10 -5z"/>
<path d="M330 281 c0 -28 5 -51 10 -51 6 0 10 7 10 15 0 8 4 15 9 15 5 0 11
-7 15 -15 3 -8 10 -15 16 -15 6 0 4 12 -5 29 -9 19 -11 32 -5 36 6 3 10 14 10
23 -1 14 -4 13 -20 -7 -15 -17 -20 -19 -20 -8 0 9 -4 19 -10 22 -6 4 -10 -13
-10 -44z"/>
<path d="M80 294 c-18 -20 6 -50 26 -33 8 6 14 17 14 24 0 19 -27 26 -40 9z
m24 -25 c-3 -5 -10 -7 -15 -3 -5 3 -7 10 -3 15 3 5 10 7 15 3 5 -3 7 -10 3
-15z"/>
<path d="M290 265 c-9 -11 -16 -12 -25 -5 -10 8 -15 8 -20 -1 -8 -11 11 -29
30 -29 16 0 31 13 38 33 8 21 -6 22 -23 2z"/>
<path d="M150 239 c0 -5 5 -7 10 -4 6 3 10 8 10 11 0 2 -4 4 -10 4 -5 0 -10
-5 -10 -11z"/>
<path d="M420 235 c0 -8 5 -15 10 -15 6 0 10 7 10 15 0 8 -4 15 -10 15 -5 0
-10 -7 -10 -15z"/>
<path d="M110 231 c0 -7 -4 -9 -10 -6 -5 3 -10 1 -10 -4 0 -6 4 -11 9 -11 13
0 25 20 17 27 -3 4 -6 1 -6 -6z"/>
<path d="M223 213 c-7 -2 -13 -9 -13 -14 0 -6 5 -7 10 -4 6 4 10 -11 10 -37 0
-28 -3 -38 -9 -29 -6 9 -11 10 -15 2 -4 -6 -2 -11 4 -11 6 0 8 -5 4 -12 -4 -6
-3 -8 4 -4 5 3 12 0 15 -6 2 -7 5 17 6 55 1 37 0 67 -1 66 -2 0 -9 -3 -15 -6z"/>
<path d="M371 204 c0 -11 3 -14 6 -6 3 7 2 16 -1 19 -3 4 -6 -2 -5 -13z"/>
<path d="M434 194 c3 -7 0 -15 -7 -18 -9 -3 -9 -5 0 -5 7 -1 17 7 22 17 8 14
6 19 -5 19 -8 0 -13 -6 -10 -13z"/>
<path d="M110 195 c0 -19 18 -38 29 -31 14 9 15 36 1 36 -5 0 -10 -6 -10 -12
0 -9 -4 -8 -10 2 -5 8 -10 11 -10 5z"/>
<path d="M270 170 c0 -5 25 -10 55 -10 30 0 55 5 55 10 0 6 -25 10 -55 10 -30
0 -55 -4 -55 -10z"/>
<path d="M161 141 c-10 -6 -10 -10 -1 -16 13 -8 24 -1 19 14 -3 6 -10 7 -18 2z"/>
<path d="M313 124 c0 -19 2 -22 8 -13 8 12 11 11 19 -1 6 -9 10 -10 10 -3 0 6
-5 15 -11 19 -8 4 -7 9 2 15 10 6 8 9 -7 9 -17 0 -21 -6 -21 -26z"/>
<path d="M290 124 c0 -10 -6 -14 -14 -11 -14 6 -32 -21 -21 -31 3 -3 5 -1 5 5
0 6 9 13 20 16 17 4 30 37 15 37 -3 0 -5 -7 -5 -16z"/>
</g>
</svg>
