<?xml version="1.0" encoding="UTF-8"?>
<svg xmlns="http://www.w3.org/2000/svg" xmlns:xlink="http://www.w3.org/1999/xlink" width="89px" height="50px" viewBox="0 0 88 50" version="1.1">
<g id="surface1">
<path style=" stroke:none;fill-rule:nonzero;fill:rgb(12.156863%,14.901961%,17.647059%);fill-opacity:1;" d="M 0 0 C 29.039062 0 58.078125 0 88 0 C 88 16.5 88 33 88 50 C 58.960938 50 29.921875 50 0 50 C 0 33.5 0 17 0 0 Z M 0 0 "/>
<path style=" stroke:none;fill-rule:nonzero;fill:rgb(98.823529%,98.823529%,98.823529%);fill-opacity:1;" d="M 30.984375 14.027344 C 31.054688 14.050781 31.054688 14.050781 31.128906 14.078125 C 31.992188 14.386719 32.515625 14.921875 32.929688 15.734375 C 33.386719 16.746094 33.429688 18.007812 33.136719 19.074219 C 33.125 19.121094 33.109375 19.171875 33.097656 19.222656 C 32.84375 20.0625 32.386719 20.714844 31.625 21.15625 C 30.757812 21.609375 29.652344 21.6875 28.714844 21.402344 C 27.859375 21.078125 27.261719 20.515625 26.871094 19.679688 C 26.609375 19.039062 26.519531 18.417969 26.519531 17.730469 C 26.519531 17.695312 26.519531 17.664062 26.519531 17.632812 C 26.523438 16.570312 26.789062 15.578125 27.523438 14.785156 C 28.402344 13.933594 29.824219 13.601562 30.984375 14.027344 Z M 30.984375 14.027344 "/>
<path style=" stroke:none;fill-rule:nonzero;fill:rgb(98.823529%,98.823529%,98.823529%);fill-opacity:1;" d="M 57.933594 14.074219 C 58.40625 14.070312 58.878906 14.066406 59.351562 14.0625 C 59.570312 14.0625 59.789062 14.058594 60.011719 14.054688 C 62.703125 14.023438 62.703125 14.023438 63.535156 14.816406 C 63.949219 15.289062 64.023438 15.773438 63.992188 16.382812 C 63.957031 16.808594 63.75 17.132812 63.433594 17.40625 C 62.855469 17.824219 62.253906 17.976562 61.554688 17.964844 C 61.554688 17.992188 61.554688 18.023438 61.554688 18.054688 C 61.601562 18.050781 61.652344 18.046875 61.699219 18.042969 C 62.136719 18.046875 62.609375 18.21875 62.929688 18.519531 C 63.140625 18.773438 63.285156 19.039062 63.417969 19.34375 C 63.4375 19.382812 63.457031 19.425781 63.476562 19.46875 C 63.535156 19.601562 63.59375 19.738281 63.652344 19.871094 C 63.691406 19.960938 63.730469 20.050781 63.769531 20.140625 C 63.84375 20.304688 63.917969 20.46875 63.988281 20.632812 C 64.003906 20.667969 64.019531 20.703125 64.035156 20.738281 C 64.066406 20.816406 64.097656 20.894531 64.125 20.972656 C 64.160156 21.078125 64.160156 21.078125 64.285156 21.117188 C 64.355469 21.132812 64.355469 21.132812 64.425781 21.148438 C 64.46875 21.160156 64.515625 21.171875 64.5625 21.179688 C 64.597656 21.1875 64.632812 21.195312 64.671875 21.203125 C 64.671875 21.265625 64.671875 21.324219 64.671875 21.390625 C 64.425781 21.394531 64.179688 21.398438 63.933594 21.402344 C 63.847656 21.402344 63.765625 21.40625 63.679688 21.40625 C 62.734375 21.429688 62.734375 21.429688 62.335938 21.078125 C 61.910156 20.632812 61.699219 19.949219 61.457031 19.390625 C 61.402344 19.257812 61.34375 19.128906 61.289062 18.996094 C 61.25 18.914062 61.214844 18.832031 61.179688 18.746094 C 61.164062 18.707031 61.144531 18.667969 61.128906 18.628906 C 61.113281 18.59375 61.097656 18.558594 61.082031 18.519531 C 61.066406 18.488281 61.054688 18.457031 61.039062 18.425781 C 61.003906 18.332031 61.003906 18.332031 60.957031 18.148438 C 60.730469 18.148438 60.503906 18.148438 60.269531 18.148438 C 60.269531 19.109375 60.269531 20.074219 60.269531 21.066406 C 60.511719 21.109375 60.753906 21.15625 61.003906 21.203125 C 61.003906 21.265625 61.003906 21.324219 61.003906 21.390625 C 59.992188 21.390625 58.976562 21.390625 57.933594 21.390625 C 57.933594 21.328125 57.933594 21.265625 57.933594 21.203125 C 58 21.1875 58.0625 21.171875 58.128906 21.15625 C 58.164062 21.148438 58.199219 21.140625 58.238281 21.132812 C 58.347656 21.109375 58.347656 21.109375 58.527344 21.109375 C 58.527344 18.878906 58.527344 16.648438 58.527344 14.351562 C 58.332031 14.304688 58.136719 14.261719 57.933594 14.214844 C 57.933594 14.167969 57.933594 14.121094 57.933594 14.074219 Z M 57.933594 14.074219 "/>
<path style=" stroke:none;fill-rule:nonzero;fill:rgb(98.039216%,98.431373%,98.431373%);fill-opacity:1;" d="M 34.285156 14.027344 C 35.25 14.027344 36.21875 14.027344 37.214844 14.027344 C 37.214844 14.089844 37.214844 14.148438 37.214844 14.214844 C 37.019531 14.257812 36.824219 14.304688 36.621094 14.351562 C 36.636719 15.40625 36.652344 16.460938 36.667969 17.546875 C 37.0625 17.074219 37.0625 17.074219 37.449219 16.59375 C 37.613281 16.386719 37.78125 16.179688 37.949219 15.972656 C 38.054688 15.84375 38.15625 15.71875 38.257812 15.589844 C 38.328125 15.503906 38.398438 15.417969 38.46875 15.332031 C 38.816406 14.933594 38.816406 14.933594 39.097656 14.492188 C 39.066406 14.480469 39.035156 14.472656 39.003906 14.464844 C 38.777344 14.398438 38.570312 14.328125 38.363281 14.214844 C 38.363281 14.152344 38.363281 14.089844 38.363281 14.027344 C 39.011719 14.027344 39.664062 14.027344 40.332031 14.027344 C 40.332031 14.089844 40.332031 14.148438 40.332031 14.214844 C 40.277344 14.230469 40.222656 14.246094 40.167969 14.265625 C 39.667969 14.4375 39.398438 14.597656 39.097656 15.046875 C 39.003906 15.167969 38.90625 15.285156 38.808594 15.402344 C 38.757812 15.464844 38.707031 15.527344 38.65625 15.589844 C 38.550781 15.726562 38.441406 15.859375 38.335938 15.992188 C 38.308594 16.027344 38.28125 16.058594 38.253906 16.09375 C 38.199219 16.15625 38.148438 16.222656 38.097656 16.285156 C 38.050781 16.34375 38.007812 16.398438 37.960938 16.457031 C 37.914062 16.515625 37.867188 16.570312 37.816406 16.625 C 37.757812 16.710938 37.757812 16.710938 37.765625 16.816406 C 37.835938 17.007812 37.945312 17.160156 38.058594 17.328125 C 38.117188 17.414062 38.175781 17.5 38.234375 17.585938 C 38.25 17.613281 38.265625 17.636719 38.285156 17.660156 C 38.519531 18.011719 38.75 18.367188 38.980469 18.722656 C 39.0625 18.847656 39.144531 18.972656 39.222656 19.097656 C 39.675781 19.785156 39.675781 19.785156 39.882812 20.117188 C 39.953125 20.234375 40.027344 20.351562 40.101562 20.46875 C 40.152344 20.546875 40.199219 20.625 40.246094 20.703125 C 40.394531 20.941406 40.492188 21.082031 40.765625 21.15625 C 40.824219 21.164062 40.824219 21.164062 40.882812 21.171875 C 40.929688 21.1875 40.929688 21.1875 40.976562 21.203125 C 41.003906 21.296875 41.003906 21.296875 41.019531 21.390625 C 40.773438 21.390625 40.523438 21.394531 40.277344 21.398438 C 40.191406 21.398438 40.109375 21.398438 40.023438 21.398438 C 39.902344 21.402344 39.78125 21.402344 39.660156 21.402344 C 39.621094 21.402344 39.585938 21.402344 39.546875 21.40625 C 39.183594 21.40625 38.902344 21.3125 38.632812 21.054688 C 38.597656 21.019531 38.558594 20.984375 38.523438 20.953125 C 38.226562 20.644531 38.003906 20.316406 37.777344 19.953125 C 37.714844 19.851562 37.648438 19.746094 37.582031 19.644531 C 37.550781 19.59375 37.519531 19.542969 37.488281 19.492188 C 37.308594 19.210938 37.125 18.933594 36.941406 18.65625 C 36.851562 18.519531 36.761719 18.382812 36.667969 18.242188 C 36.652344 19.1875 36.636719 20.136719 36.621094 21.109375 C 36.742188 21.125 36.863281 21.140625 36.988281 21.15625 C 37.0625 21.171875 37.140625 21.1875 37.214844 21.203125 C 37.214844 21.265625 37.214844 21.324219 37.214844 21.390625 C 36.25 21.390625 35.28125 21.390625 34.285156 21.390625 C 34.285156 21.328125 34.285156 21.265625 34.285156 21.203125 C 34.480469 21.15625 34.675781 21.113281 34.878906 21.066406 C 34.878906 18.847656 34.878906 16.632812 34.878906 14.351562 C 34.757812 14.335938 34.636719 14.320312 34.511719 14.304688 C 34.375 14.257812 34.375 14.257812 34.285156 14.214844 C 34.285156 14.152344 34.285156 14.089844 34.285156 14.027344 Z M 34.285156 14.027344 "/>
<path style=" stroke:none;fill-rule:nonzero;fill:rgb(97.647059%,97.647059%,98.039216%);fill-opacity:1;" d="M 51.242188 14.027344 C 53.070312 14.027344 54.902344 14.027344 56.789062 14.027344 C 56.789062 14.652344 56.789062 15.28125 56.789062 15.925781 C 56.421875 15.925781 56.421875 15.925781 56.332031 15.871094 C 56.152344 15.632812 56.03125 15.375 55.917969 15.09375 C 55.898438 15.046875 55.878906 15 55.855469 14.953125 C 55.824219 14.816406 55.824219 14.816406 55.824219 14.304688 C 55.082031 14.304688 54.34375 14.304688 53.578125 14.304688 C 53.578125 15.390625 53.578125 16.476562 53.578125 17.59375 C 53.972656 17.59375 54.367188 17.59375 54.769531 17.59375 C 54.800781 17.457031 54.832031 17.316406 54.863281 17.175781 C 54.929688 17.027344 54.929688 17.027344 55 16.902344 C 55.023438 16.859375 55.046875 16.816406 55.070312 16.773438 C 55.136719 16.667969 55.136719 16.667969 55.230469 16.574219 C 55.335938 16.574219 55.441406 16.574219 55.550781 16.574219 C 55.550781 17.351562 55.550781 18.132812 55.550781 18.933594 C 55.230469 18.933594 55.230469 18.933594 55.144531 18.859375 C 54.769531 18.222656 54.769531 18.222656 54.769531 17.871094 C 54.378906 17.871094 53.984375 17.871094 53.578125 17.871094 C 53.578125 18.941406 53.578125 20.007812 53.578125 21.109375 C 54.378906 21.109375 55.183594 21.109375 56.007812 21.109375 C 56.03125 20.8125 56.03125 20.8125 56.054688 20.507812 C 56.160156 20.117188 56.367188 19.777344 56.648438 19.492188 C 56.757812 19.492188 56.863281 19.492188 56.972656 19.492188 C 56.972656 20.117188 56.972656 20.742188 56.972656 21.390625 C 55.082031 21.390625 53.191406 21.390625 51.242188 21.390625 C 51.242188 21.328125 51.242188 21.265625 51.242188 21.203125 C 51.304688 21.1875 51.371094 21.171875 51.4375 21.15625 C 51.472656 21.148438 51.507812 21.140625 51.546875 21.132812 C 51.652344 21.109375 51.652344 21.109375 51.835938 21.109375 C 51.835938 18.878906 51.835938 16.648438 51.835938 14.351562 C 51.640625 14.304688 51.445312 14.261719 51.242188 14.214844 C 51.242188 14.152344 51.242188 14.089844 51.242188 14.027344 Z M 51.242188 14.027344 "/>
<path style=" stroke:none;fill-rule:nonzero;fill:rgb(98.823529%,98.823529%,98.823529%);fill-opacity:1;" d="M 35.660156 24.492188 C 36.308594 24.492188 36.960938 24.492188 37.628906 24.492188 C 37.628906 24.550781 37.628906 24.613281 37.628906 24.675781 C 37.515625 24.722656 37.40625 24.769531 37.292969 24.816406 C 37.261719 24.828125 37.230469 24.839844 37.199219 24.855469 C 37.058594 24.910156 36.953125 24.953125 36.804688 24.953125 C 36.804688 27.277344 36.804688 29.597656 36.804688 31.992188 C 36.4375 31.992188 36.4375 31.992188 36.332031 31.902344 C 36.304688 31.863281 36.273438 31.820312 36.246094 31.78125 C 36.210938 31.734375 36.175781 31.6875 36.140625 31.636719 C 36.113281 31.601562 36.113281 31.601562 36.085938 31.5625 C 35.976562 31.417969 35.855469 31.28125 35.734375 31.144531 C 35.683594 31.082031 35.632812 31.023438 35.582031 30.964844 C 35.554688 30.933594 35.53125 30.90625 35.503906 30.875 C 35.1875 30.507812 34.875 30.136719 34.566406 29.761719 C 34.410156 29.582031 34.257812 29.398438 34.101562 29.214844 C 34.082031 29.1875 34.058594 29.164062 34.035156 29.132812 C 33.917969 28.996094 33.800781 28.859375 33.683594 28.722656 C 33.472656 28.476562 33.261719 28.226562 33.058594 27.972656 C 32.898438 27.773438 32.726562 27.578125 32.554688 27.386719 C 32.410156 27.226562 32.277344 27.058594 32.144531 26.890625 C 32.003906 26.71875 31.859375 26.554688 31.714844 26.390625 C 31.714844 28.039062 31.714844 29.6875 31.714844 31.390625 C 31.972656 31.480469 32.230469 31.570312 32.496094 31.667969 C 32.496094 31.726562 32.496094 31.789062 32.496094 31.851562 C 31.84375 31.851562 31.195312 31.851562 30.523438 31.851562 C 30.523438 31.789062 30.523438 31.730469 30.523438 31.667969 C 30.644531 31.621094 30.765625 31.574219 30.886719 31.527344 C 30.921875 31.515625 30.953125 31.5 30.988281 31.488281 C 31.246094 31.390625 31.246094 31.390625 31.351562 31.390625 C 31.351562 29.234375 31.351562 27.082031 31.351562 24.859375 C 31.242188 24.847656 31.136719 24.832031 31.027344 24.816406 C 30.902344 24.773438 30.785156 24.726562 30.664062 24.675781 C 30.664062 24.628906 30.664062 24.585938 30.664062 24.535156 C 30.875 24.53125 31.085938 24.523438 31.296875 24.523438 C 31.371094 24.519531 31.441406 24.519531 31.511719 24.515625 C 32.0625 24.496094 32.488281 24.558594 32.921875 24.933594 C 32.957031 24.976562 32.992188 25.015625 33.03125 25.054688 C 33.074219 25.097656 33.113281 25.144531 33.15625 25.1875 C 33.304688 25.359375 33.449219 25.53125 33.585938 25.710938 C 33.6875 25.832031 33.789062 25.949219 33.894531 26.066406 C 34.03125 26.21875 34.164062 26.375 34.292969 26.535156 C 34.535156 26.835938 34.785156 27.121094 35.03125 27.410156 C 35.375 27.808594 35.710938 28.207031 36.042969 28.609375 C 36.175781 28.765625 36.304688 28.917969 36.4375 29.074219 C 36.453125 27.714844 36.46875 26.355469 36.484375 24.953125 C 36.277344 24.90625 36.277344 24.90625 36.070312 24.859375 C 35.941406 24.8125 35.941406 24.8125 35.839844 24.761719 C 35.804688 24.746094 35.769531 24.730469 35.734375 24.714844 C 35.710938 24.699219 35.683594 24.6875 35.660156 24.675781 C 35.660156 24.613281 35.660156 24.554688 35.660156 24.492188 Z M 35.660156 24.492188 "/>
<path style=" stroke:none;fill-rule:nonzero;fill:rgb(98.039216%,98.039216%,98.039216%);fill-opacity:1;" d="M 55.824219 24.492188 C 57.683594 24.492188 59.546875 24.492188 61.460938 24.492188 C 61.460938 24.855469 61.460938 24.855469 61.34375 25.046875 C 61.320312 25.09375 61.292969 25.136719 61.265625 25.179688 C 61.238281 25.226562 61.210938 25.269531 61.183594 25.316406 C 61.121094 25.417969 61.0625 25.515625 61.003906 25.617188 C 60.972656 25.667969 60.941406 25.71875 60.910156 25.773438 C 60.769531 26.015625 60.632812 26.265625 60.496094 26.511719 C 60.234375 26.984375 59.96875 27.453125 59.703125 27.921875 C 59.546875 28.203125 59.386719 28.484375 59.226562 28.765625 C 59.070312 29.046875 58.910156 29.324219 58.75 29.605469 C 58.6875 29.71875 58.625 29.832031 58.5625 29.941406 C 58.515625 30.019531 58.472656 30.09375 58.429688 30.171875 C 58.167969 30.636719 57.914062 31.105469 57.660156 31.574219 C 58.566406 31.574219 59.472656 31.574219 60.410156 31.574219 C 60.410156 31.453125 60.410156 31.328125 60.410156 31.203125 C 60.488281 30.785156 60.660156 30.433594 60.914062 30.09375 C 60.929688 30.066406 60.949219 30.039062 60.96875 30.007812 C 61.050781 29.953125 61.050781 29.953125 61.417969 29.953125 C 61.417969 30.582031 61.417969 31.207031 61.417969 31.851562 C 59.527344 31.851562 57.636719 31.851562 55.6875 31.851562 C 55.6875 31.539062 55.722656 31.429688 55.875 31.1875 C 55.917969 31.117188 55.960938 31.046875 56.003906 30.976562 C 56.027344 30.9375 56.050781 30.902344 56.074219 30.863281 C 56.207031 30.640625 56.332031 30.410156 56.457031 30.183594 C 56.667969 29.792969 56.886719 29.410156 57.109375 29.027344 C 57.328125 28.652344 57.539062 28.273438 57.75 27.894531 C 57.984375 27.46875 58.226562 27.042969 58.472656 26.625 C 58.703125 26.226562 58.925781 25.824219 59.148438 25.421875 C 59.171875 25.375 59.195312 25.332031 59.222656 25.28125 C 59.257812 25.222656 59.257812 25.222656 59.289062 25.160156 C 59.355469 25.042969 59.421875 24.929688 59.492188 24.816406 C 58.613281 24.800781 57.738281 24.785156 56.832031 24.769531 C 56.816406 24.96875 56.804688 25.164062 56.789062 25.371094 C 56.6875 25.714844 56.515625 26.195312 56.191406 26.390625 C 56.070312 26.390625 55.949219 26.390625 55.824219 26.390625 C 55.824219 25.761719 55.824219 25.136719 55.824219 24.492188 Z M 55.824219 24.492188 "/>
<path style=" stroke:none;fill-rule:nonzero;fill:rgb(98.431373%,98.431373%,98.431373%);fill-opacity:1;" d="M 26.792969 24.394531 C 26.84375 24.394531 26.894531 24.398438 26.949219 24.398438 C 27.269531 25.117188 27.574219 25.839844 27.871094 26.566406 C 28.136719 27.214844 28.402344 27.863281 28.675781 28.511719 C 28.976562 29.234375 29.28125 29.960938 29.578125 30.6875 C 29.597656 30.738281 29.597656 30.738281 29.621094 30.789062 C 29.65625 30.875 29.691406 30.960938 29.726562 31.046875 C 29.757812 31.125 29.757812 31.125 29.792969 31.203125 C 29.808594 31.25 29.808594 31.25 29.828125 31.292969 C 29.890625 31.476562 29.890625 31.476562 30.042969 31.582031 C 30.082031 31.589844 30.121094 31.597656 30.164062 31.605469 C 30.289062 31.628906 30.289062 31.628906 30.386719 31.667969 C 30.417969 31.761719 30.417969 31.761719 30.433594 31.851562 C 30.207031 31.855469 29.976562 31.859375 29.75 31.863281 C 29.671875 31.863281 29.597656 31.863281 29.519531 31.867188 C 28.691406 31.882812 28.691406 31.882812 28.371094 31.667969 C 28.332031 31.640625 28.296875 31.617188 28.257812 31.589844 C 28.230469 31.566406 28.203125 31.542969 28.175781 31.515625 C 28.148438 31.492188 28.121094 31.46875 28.09375 31.441406 C 27.8125 31.125 27.667969 30.734375 27.507812 30.347656 C 27.429688 30.15625 27.351562 29.964844 27.269531 29.769531 C 26.4375 29.753906 25.605469 29.738281 24.75 29.722656 C 24.703125 29.859375 24.660156 29.996094 24.613281 30.140625 C 24.574219 30.234375 24.539062 30.332031 24.5 30.429688 C 24.480469 30.480469 24.457031 30.53125 24.4375 30.582031 C 24.394531 30.6875 24.351562 30.792969 24.308594 30.898438 C 24.289062 30.945312 24.269531 30.996094 24.25 31.046875 C 24.222656 31.117188 24.222656 31.117188 24.195312 31.1875 C 24.148438 31.292969 24.148438 31.292969 24.152344 31.390625 C 24.394531 31.480469 24.636719 31.570312 24.886719 31.667969 C 24.886719 31.726562 24.886719 31.789062 24.886719 31.851562 C 24.253906 31.851562 23.617188 31.851562 22.960938 31.851562 C 22.960938 31.789062 22.960938 31.730469 22.960938 31.667969 C 23.082031 31.621094 23.203125 31.574219 23.324219 31.527344 C 23.359375 31.515625 23.390625 31.5 23.425781 31.488281 C 23.683594 31.390625 23.683594 31.390625 23.789062 31.390625 C 23.804688 31.335938 23.820312 31.285156 23.835938 31.230469 C 23.957031 30.867188 24.105469 30.515625 24.25 30.160156 C 24.285156 30.082031 24.316406 30 24.351562 29.921875 C 24.625 29.242188 24.90625 28.5625 25.183594 27.886719 C 25.40625 27.347656 25.625 26.808594 25.847656 26.269531 C 25.882812 26.175781 25.921875 26.085938 25.960938 25.992188 C 26.011719 25.863281 26.066406 25.734375 26.117188 25.605469 C 26.136719 25.566406 26.152344 25.523438 26.167969 25.484375 C 26.292969 25.179688 26.414062 24.871094 26.53125 24.566406 C 26.601562 24.398438 26.601562 24.398438 26.792969 24.394531 Z M 26.792969 24.394531 "/>
<path style=" stroke:none;fill-rule:nonzero;fill:rgb(98.431373%,98.431373%,98.431373%);fill-opacity:1;" d="M 41.339844 24.398438 C 41.460938 24.398438 41.582031 24.398438 41.707031 24.398438 C 41.726562 24.4375 41.742188 24.476562 41.757812 24.519531 C 42.191406 25.570312 42.625 26.621094 43.0625 27.671875 C 43.1875 27.972656 43.3125 28.273438 43.4375 28.574219 C 43.453125 28.617188 43.472656 28.660156 43.488281 28.703125 C 43.578125 28.914062 43.664062 29.125 43.75 29.335938 C 43.910156 29.71875 44.070312 30.101562 44.230469 30.488281 C 44.273438 30.585938 44.3125 30.6875 44.355469 30.789062 C 44.394531 30.878906 44.433594 30.972656 44.472656 31.0625 C 44.496094 31.117188 44.515625 31.171875 44.539062 31.226562 C 44.558594 31.277344 44.578125 31.324219 44.601562 31.371094 C 44.640625 31.480469 44.640625 31.480469 44.640625 31.574219 C 44.714844 31.585938 44.714844 31.585938 44.789062 31.59375 C 44.914062 31.613281 45.027344 31.632812 45.144531 31.667969 C 45.144531 31.726562 45.144531 31.789062 45.144531 31.851562 C 44.925781 31.855469 44.707031 31.859375 44.484375 31.863281 C 44.410156 31.863281 44.335938 31.863281 44.261719 31.867188 C 43.710938 31.878906 43.230469 31.859375 42.804688 31.453125 C 42.605469 31.199219 42.480469 30.898438 42.351562 30.601562 C 42.335938 30.566406 42.320312 30.53125 42.304688 30.496094 C 42.257812 30.398438 42.210938 30.296875 42.167969 30.195312 C 42.152344 30.164062 42.140625 30.132812 42.125 30.097656 C 42.066406 29.964844 42.027344 29.871094 42.027344 29.722656 C 40.78125 29.746094 40.78125 29.746094 39.507812 29.769531 C 39.296875 30.289062 39.085938 30.808594 38.867188 31.34375 C 39.152344 31.488281 39.152344 31.488281 39.441406 31.609375 C 39.492188 31.628906 39.546875 31.648438 39.601562 31.667969 C 39.601562 31.726562 39.601562 31.789062 39.601562 31.851562 C 38.964844 31.851562 38.328125 31.851562 37.675781 31.851562 C 37.675781 31.789062 37.675781 31.730469 37.675781 31.667969 C 37.757812 31.644531 37.757812 31.644531 37.84375 31.621094 C 38.285156 31.496094 38.285156 31.496094 38.617188 31.195312 C 38.714844 31.011719 38.777344 30.816406 38.839844 30.621094 C 38.867188 30.546875 38.894531 30.476562 38.921875 30.402344 C 38.980469 30.242188 39.039062 30.085938 39.09375 29.925781 C 39.238281 29.53125 39.402344 29.148438 39.5625 28.761719 C 39.65625 28.535156 39.746094 28.308594 39.839844 28.082031 C 40.03125 27.609375 40.226562 27.136719 40.421875 26.664062 C 40.730469 25.910156 41.039062 25.15625 41.339844 24.398438 Z M 41.339844 24.398438 "/>
<path style=" stroke:none;fill-rule:nonzero;fill:rgb(12.54902%,15.294118%,18.039216%);fill-opacity:1;" d="M 30.3125 14.160156 C 30.816406 14.457031 31.097656 15 31.246094 15.550781 C 31.285156 15.707031 31.320312 15.859375 31.351562 16.019531 C 31.359375 16.0625 31.367188 16.105469 31.375 16.148438 C 31.453125 16.625 31.457031 17.097656 31.457031 17.578125 C 31.457031 17.71875 31.457031 17.859375 31.457031 17.996094 C 31.460938 18.703125 31.410156 19.398438 31.175781 20.070312 C 31.164062 20.105469 31.152344 20.136719 31.140625 20.171875 C 30.964844 20.667969 30.738281 21.03125 30.277344 21.289062 C 29.980469 21.382812 29.753906 21.378906 29.464844 21.25 C 29.050781 21.015625 28.859375 20.667969 28.691406 20.230469 C 28.667969 20.171875 28.667969 20.171875 28.640625 20.109375 C 28.375 19.386719 28.347656 18.609375 28.355469 17.847656 C 28.355469 17.714844 28.355469 17.585938 28.355469 17.453125 C 28.359375 16.464844 28.414062 15.261719 29.105469 14.492188 C 29.449219 14.148438 29.824219 13.984375 30.3125 14.160156 Z M 30.3125 14.160156 "/>
<path style=" stroke:none;fill-rule:nonzero;fill:rgb(98.823529%,98.823529%,98.823529%);fill-opacity:1;" d="M 24.199219 14.027344 C 24.851562 14.027344 25.5 14.027344 26.171875 14.027344 C 26.171875 14.089844 26.171875 14.148438 26.171875 14.214844 C 26.089844 14.234375 26.089844 14.234375 26.003906 14.257812 C 25.660156 14.359375 25.351562 14.457031 25.164062 14.789062 C 25.085938 14.960938 25.015625 15.132812 24.949219 15.308594 C 24.917969 15.386719 24.886719 15.460938 24.855469 15.539062 C 24.789062 15.695312 24.726562 15.851562 24.664062 16.011719 C 24.523438 16.359375 24.371094 16.703125 24.214844 17.046875 C 24.167969 17.148438 24.125 17.253906 24.078125 17.359375 C 24.058594 17.40625 24.058594 17.40625 24.035156 17.457031 C 24.007812 17.519531 23.980469 17.585938 23.953125 17.648438 C 23.890625 17.789062 23.832031 17.921875 23.753906 18.050781 C 23.445312 18.589844 23.515625 19.226562 23.519531 19.828125 C 23.515625 19.949219 23.515625 20.070312 23.515625 20.1875 C 23.511719 20.480469 23.511719 20.773438 23.511719 21.066406 C 23.710938 21.109375 23.90625 21.15625 24.109375 21.203125 C 24.125 21.265625 24.136719 21.324219 24.152344 21.390625 C 23.171875 21.390625 22.1875 21.390625 21.175781 21.390625 C 21.175781 21.328125 21.175781 21.265625 21.175781 21.203125 C 21.386719 21.15625 21.597656 21.113281 21.816406 21.066406 C 21.820312 20.730469 21.824219 20.398438 21.820312 20.066406 C 21.824219 19.953125 21.824219 19.839844 21.824219 19.726562 C 21.835938 18.992188 21.769531 18.492188 21.390625 17.871094 C 21.238281 17.601562 21.109375 17.316406 20.976562 17.03125 C 20.886719 16.847656 20.796875 16.660156 20.707031 16.476562 C 20.597656 16.246094 20.484375 16.015625 20.375 15.785156 C 20.289062 15.59375 20.195312 15.40625 20.105469 15.21875 C 20.070312 15.148438 20.035156 15.074219 20.003906 15.003906 C 19.835938 14.609375 19.835938 14.609375 19.539062 14.328125 C 19.414062 14.292969 19.414062 14.292969 19.296875 14.28125 C 19.265625 14.273438 19.234375 14.265625 19.203125 14.257812 C 19.167969 14.164062 19.167969 14.164062 19.160156 14.074219 C 19.390625 14.070312 19.625 14.066406 19.859375 14.066406 C 19.941406 14.066406 20.019531 14.066406 20.097656 14.0625 C 20.214844 14.0625 20.328125 14.0625 20.441406 14.058594 C 20.476562 14.058594 20.511719 14.058594 20.550781 14.058594 C 20.933594 14.058594 21.265625 14.164062 21.542969 14.4375 C 21.863281 14.789062 22.046875 15.269531 22.257812 15.691406 C 22.289062 15.757812 22.320312 15.824219 22.351562 15.890625 C 22.4375 16.0625 22.523438 16.234375 22.605469 16.40625 C 22.695312 16.582031 22.78125 16.757812 22.867188 16.933594 C 23.035156 17.277344 23.207031 17.621094 23.375 17.964844 C 23.632812 17.449219 23.632812 17.449219 23.871094 16.921875 C 23.886719 16.890625 23.902344 16.855469 23.914062 16.820312 C 23.960938 16.714844 24.007812 16.609375 24.054688 16.503906 C 24.117188 16.359375 24.183594 16.210938 24.246094 16.0625 C 24.261719 16.027344 24.277344 15.992188 24.292969 15.953125 C 24.445312 15.609375 24.601562 15.261719 24.757812 14.917969 C 24.773438 14.882812 24.792969 14.84375 24.808594 14.808594 C 24.824219 14.777344 24.835938 14.746094 24.851562 14.710938 C 24.890625 14.621094 24.890625 14.621094 24.933594 14.492188 C 24.902344 14.480469 24.875 14.472656 24.84375 14.464844 C 24.617188 14.398438 24.40625 14.328125 24.199219 14.214844 C 24.199219 14.152344 24.199219 14.089844 24.199219 14.027344 Z M 24.199219 14.027344 "/>
<path style=" stroke:none;fill-rule:nonzero;fill:rgb(98.823529%,99.215686%,99.215686%);fill-opacity:1;" d="M 45.464844 24.492188 C 46.449219 24.492188 47.433594 24.492188 48.445312 24.492188 C 48.445312 24.550781 48.445312 24.613281 48.445312 24.675781 C 48.375 24.699219 48.300781 24.722656 48.226562 24.746094 C 48.1875 24.757812 48.148438 24.769531 48.105469 24.785156 C 47.988281 24.816406 47.988281 24.816406 47.804688 24.816406 C 47.804688 27.046875 47.804688 29.277344 47.804688 31.574219 C 48.546875 31.574219 49.285156 31.574219 50.050781 31.574219 C 50.050781 31.421875 50.050781 31.269531 50.050781 31.109375 C 50.140625 30.726562 50.289062 30.382812 50.554688 30.09375 C 50.574219 30.066406 50.589844 30.039062 50.609375 30.011719 C 50.691406 29.953125 50.691406 29.953125 51.011719 29.953125 C 51.011719 30.582031 51.011719 31.207031 51.011719 31.851562 C 49.183594 31.851562 47.351562 31.851562 45.464844 31.851562 C 45.464844 31.789062 45.464844 31.730469 45.464844 31.667969 C 45.664062 31.621094 45.859375 31.574219 46.0625 31.527344 C 46.078125 29.3125 46.09375 27.097656 46.109375 24.816406 C 45.941406 24.785156 45.777344 24.753906 45.605469 24.722656 C 45.558594 24.707031 45.511719 24.691406 45.464844 24.675781 C 45.464844 24.613281 45.464844 24.554688 45.464844 24.492188 Z M 45.464844 24.492188 "/>
<path style=" stroke:none;fill-rule:nonzero;fill:rgb(98.431373%,98.431373%,98.823529%);fill-opacity:1;" d="M 48.996094 14.027344 C 49.632812 14.027344 50.265625 14.027344 50.921875 14.027344 C 50.921875 14.089844 50.921875 14.148438 50.921875 14.214844 C 50.867188 14.226562 50.8125 14.238281 50.753906 14.25 C 50.484375 14.320312 50.203125 14.398438 50.023438 14.628906 C 49.867188 14.910156 49.785156 15.21875 49.691406 15.527344 C 49.660156 15.628906 49.625 15.726562 49.589844 15.828125 C 49.519531 16.042969 49.449219 16.257812 49.382812 16.472656 C 49.214844 16.980469 49.027344 17.480469 48.84375 17.980469 C 48.742188 18.257812 48.640625 18.535156 48.539062 18.8125 C 48.511719 18.890625 48.511719 18.890625 48.480469 18.972656 C 48.289062 19.5 48.097656 20.023438 47.90625 20.550781 C 47.894531 20.589844 47.878906 20.628906 47.863281 20.671875 C 47.824219 20.785156 47.78125 20.894531 47.742188 21.007812 C 47.730469 21.039062 47.71875 21.070312 47.707031 21.105469 C 47.660156 21.230469 47.617188 21.355469 47.574219 21.480469 C 47.453125 21.480469 47.332031 21.480469 47.207031 21.480469 C 46.839844 20.652344 46.472656 19.820312 46.113281 18.988281 C 45.878906 18.445312 45.640625 17.90625 45.402344 17.363281 C 45.109375 16.691406 44.816406 16.023438 44.523438 15.351562 C 44.492188 15.269531 44.457031 15.1875 44.421875 15.109375 C 44.371094 15 44.324219 14.890625 44.277344 14.777344 C 44.261719 14.746094 44.25 14.714844 44.234375 14.679688 C 44.136719 14.453125 44.136719 14.453125 44.136719 14.351562 C 44.089844 14.347656 44.042969 14.339844 43.992188 14.335938 C 43.839844 14.308594 43.726562 14.277344 43.585938 14.214844 C 43.585938 14.167969 43.585938 14.121094 43.585938 14.074219 C 43.820312 14.070312 44.054688 14.066406 44.289062 14.0625 C 44.367188 14.0625 44.449219 14.0625 44.527344 14.058594 C 45.375 14.042969 45.375 14.042969 45.695312 14.257812 C 45.726562 14.28125 45.761719 14.300781 45.792969 14.324219 C 46.128906 14.5625 46.265625 14.960938 46.429688 15.324219 C 46.460938 15.390625 46.460938 15.390625 46.488281 15.457031 C 46.910156 16.386719 47.3125 17.328125 47.71875 18.261719 C 47.734375 18.296875 47.746094 18.328125 47.761719 18.363281 C 47.777344 18.398438 47.792969 18.429688 47.804688 18.464844 C 47.835938 18.535156 47.871094 18.605469 47.902344 18.679688 C 47.917969 18.714844 47.933594 18.75 47.953125 18.789062 C 47.96875 18.824219 47.984375 18.855469 48 18.890625 C 48.035156 18.980469 48.035156 18.980469 48.035156 19.121094 C 48.0625 19.121094 48.09375 19.121094 48.125 19.121094 C 48.136719 19.0625 48.148438 19.007812 48.160156 18.949219 C 48.21875 18.667969 48.316406 18.40625 48.417969 18.136719 C 48.4375 18.082031 48.457031 18.03125 48.476562 17.972656 C 48.53125 17.828125 48.582031 17.683594 48.636719 17.539062 C 48.691406 17.390625 48.746094 17.242188 48.800781 17.09375 C 48.925781 16.75 49.054688 16.40625 49.179688 16.066406 C 49.210938 15.976562 49.246094 15.886719 49.277344 15.796875 C 49.355469 15.585938 49.433594 15.375 49.511719 15.164062 C 49.527344 15.121094 49.527344 15.121094 49.546875 15.074219 C 49.722656 14.601562 49.722656 14.601562 49.773438 14.492188 C 49.738281 14.488281 49.703125 14.484375 49.667969 14.480469 C 49.429688 14.429688 49.21875 14.320312 48.996094 14.214844 C 48.996094 14.152344 48.996094 14.089844 48.996094 14.027344 Z M 48.996094 14.027344 "/>
<path style=" stroke:none;fill-rule:nonzero;fill:rgb(99.215686%,99.215686%,99.215686%);fill-opacity:1;" d="M 65.175781 14.027344 C 66.15625 14.027344 67.140625 14.027344 68.152344 14.027344 C 68.152344 14.089844 68.152344 14.148438 68.152344 14.214844 C 68.082031 14.238281 68.007812 14.257812 67.9375 14.28125 C 67.894531 14.296875 67.855469 14.308594 67.8125 14.320312 C 67.695312 14.351562 67.695312 14.351562 67.511719 14.351562 C 67.527344 16.566406 67.542969 18.78125 67.558594 21.066406 C 67.738281 21.109375 67.921875 21.15625 68.109375 21.203125 C 68.125 21.265625 68.136719 21.324219 68.152344 21.390625 C 67.171875 21.390625 66.1875 21.390625 65.175781 21.390625 C 65.199219 21.296875 65.199219 21.296875 65.222656 21.203125 C 65.417969 21.15625 65.613281 21.113281 65.816406 21.066406 C 65.816406 18.847656 65.816406 16.632812 65.816406 14.351562 C 65.695312 14.335938 65.574219 14.320312 65.449219 14.304688 C 65.359375 14.277344 65.265625 14.246094 65.175781 14.214844 C 65.175781 14.152344 65.175781 14.089844 65.175781 14.027344 Z M 65.175781 14.027344 "/>
<path style=" stroke:none;fill-rule:nonzero;fill:rgb(99.215686%,99.215686%,99.215686%);fill-opacity:1;" d="M 62.378906 24.492188 C 63.363281 24.492188 64.34375 24.492188 65.359375 24.492188 C 65.359375 24.550781 65.359375 24.613281 65.359375 24.675781 C 65.285156 24.699219 65.214844 24.722656 65.140625 24.746094 C 65.101562 24.757812 65.058594 24.769531 65.019531 24.785156 C 64.898438 24.816406 64.898438 24.816406 64.714844 24.816406 C 64.714844 27.03125 64.714844 29.246094 64.714844 31.527344 C 64.914062 31.574219 65.109375 31.621094 65.3125 31.667969 C 65.328125 31.726562 65.34375 31.789062 65.359375 31.851562 C 64.375 31.851562 63.390625 31.851562 62.378906 31.851562 C 62.378906 31.789062 62.378906 31.730469 62.378906 31.667969 C 62.574219 31.621094 62.773438 31.574219 62.976562 31.527344 C 62.988281 29.3125 63.003906 27.097656 63.019531 24.816406 C 62.855469 24.785156 62.6875 24.753906 62.515625 24.722656 C 62.472656 24.707031 62.425781 24.691406 62.378906 24.675781 C 62.378906 24.613281 62.378906 24.554688 62.378906 24.492188 Z M 62.378906 24.492188 "/>
<path style=" stroke:none;fill-rule:nonzero;fill:rgb(99.215686%,99.215686%,99.215686%);fill-opacity:1;" d="M 51.792969 24.492188 C 52.773438 24.492188 53.757812 24.492188 54.769531 24.492188 C 54.769531 24.550781 54.769531 24.613281 54.769531 24.675781 C 54.699219 24.699219 54.625 24.722656 54.554688 24.746094 C 54.511719 24.757812 54.472656 24.769531 54.429688 24.785156 C 54.3125 24.816406 54.3125 24.816406 54.128906 24.816406 C 54.128906 27.03125 54.128906 29.246094 54.128906 31.527344 C 54.324219 31.574219 54.523438 31.621094 54.726562 31.667969 C 54.738281 31.726562 54.753906 31.789062 54.769531 31.851562 C 53.789062 31.851562 52.804688 31.851562 51.792969 31.851562 C 51.792969 31.789062 51.792969 31.730469 51.792969 31.667969 C 51.988281 31.621094 52.183594 31.574219 52.386719 31.527344 C 52.402344 29.3125 52.417969 27.097656 52.433594 24.816406 C 52.265625 24.785156 52.101562 24.753906 51.929688 24.722656 C 51.882812 24.707031 51.839844 24.691406 51.792969 24.675781 C 51.792969 24.613281 51.792969 24.554688 51.792969 24.492188 Z M 51.792969 24.492188 "/>
<path style=" stroke:none;fill-rule:nonzero;fill:rgb(12.54902%,15.294118%,18.039216%);fill-opacity:1;" d="M 60.269531 14.304688 C 61.347656 14.304688 61.347656 14.304688 61.785156 14.722656 C 62.15625 15.105469 62.257812 15.601562 62.261719 16.121094 C 62.257812 16.417969 62.234375 16.675781 62.105469 16.945312 C 62.089844 16.976562 62.078125 17.007812 62.066406 17.039062 C 61.914062 17.386719 61.691406 17.609375 61.355469 17.773438 C 61.050781 17.871094 61.050781 17.871094 60.269531 17.871094 C 60.269531 16.695312 60.269531 15.519531 60.269531 14.304688 Z M 60.269531 14.304688 "/>
<path style=" stroke:none;fill-rule:nonzero;fill:rgb(13.333334%,16.078432%,18.82353%);fill-opacity:1;" d="M 40.699219 26.714844 C 40.730469 26.714844 40.761719 26.714844 40.792969 26.714844 C 40.898438 26.96875 41 27.226562 41.105469 27.480469 C 41.140625 27.566406 41.179688 27.652344 41.214844 27.742188 C 41.316406 27.992188 41.417969 28.242188 41.519531 28.492188 C 41.570312 28.609375 41.617188 28.730469 41.667969 28.847656 C 41.699219 28.917969 41.726562 28.992188 41.757812 29.0625 C 41.769531 29.097656 41.785156 29.128906 41.796875 29.164062 C 41.890625 29.394531 41.890625 29.394531 41.890625 29.445312 C 41.152344 29.445312 40.410156 29.445312 39.644531 29.445312 C 39.6875 29.230469 39.753906 29.042969 39.835938 28.84375 C 39.851562 28.808594 39.863281 28.773438 39.878906 28.734375 C 39.925781 28.621094 39.972656 28.503906 40.019531 28.390625 C 40.046875 28.316406 40.078125 28.242188 40.109375 28.167969 C 40.304688 27.683594 40.503906 27.199219 40.699219 26.714844 Z M 40.699219 26.714844 "/>
<path style=" stroke:none;fill-rule:nonzero;fill:rgb(13.333334%,16.078432%,18.82353%);fill-opacity:1;" d="M 25.988281 26.714844 C 26.082031 26.835938 26.152344 26.949219 26.214844 27.09375 C 26.238281 27.152344 26.238281 27.152344 26.261719 27.210938 C 26.277344 27.25 26.296875 27.292969 26.3125 27.335938 C 26.332031 27.378906 26.347656 27.421875 26.367188 27.464844 C 26.421875 27.601562 26.480469 27.738281 26.535156 27.875 C 26.570312 27.96875 26.609375 28.058594 26.648438 28.148438 C 26.75 28.394531 26.851562 28.640625 26.949219 28.890625 C 26.96875 28.929688 26.984375 28.972656 27.003906 29.019531 C 27.027344 29.082031 27.027344 29.082031 27.054688 29.144531 C 27.070312 29.183594 27.085938 29.21875 27.101562 29.257812 C 27.132812 29.351562 27.132812 29.351562 27.132812 29.445312 C 26.390625 29.445312 25.652344 29.445312 24.886719 29.445312 C 25.042969 28.976562 25.042969 28.976562 25.109375 28.8125 C 25.132812 28.757812 25.132812 28.757812 25.15625 28.703125 C 25.171875 28.664062 25.1875 28.625 25.203125 28.585938 C 25.21875 28.546875 25.234375 28.503906 25.253906 28.464844 C 25.289062 28.378906 25.324219 28.292969 25.359375 28.207031 C 25.410156 28.078125 25.464844 27.949219 25.519531 27.820312 C 25.550781 27.738281 25.585938 27.652344 25.621094 27.570312 C 25.636719 27.53125 25.652344 27.496094 25.667969 27.457031 C 25.769531 27.207031 25.878906 26.960938 25.988281 26.714844 Z M 25.988281 26.714844 "/>
<path style=" stroke:none;fill-rule:nonzero;fill:rgb(98.039216%,98.431373%,98.431373%);fill-opacity:1;" d="M 64.171875 22.457031 C 64.34375 22.574219 64.480469 22.683594 64.578125 22.871094 C 64.625 23.109375 64.613281 23.339844 64.511719 23.5625 C 64.347656 23.761719 64.1875 23.859375 63.933594 23.90625 C 63.699219 23.921875 63.519531 23.855469 63.339844 23.703125 C 63.160156 23.472656 63.128906 23.285156 63.140625 22.988281 C 63.171875 22.785156 63.253906 22.664062 63.414062 22.535156 C 63.660156 22.367188 63.886719 22.359375 64.171875 22.457031 Z M 64.171875 22.457031 "/>
<path style=" stroke:none;fill-rule:nonzero;fill:rgb(98.039216%,98.431373%,98.431373%);fill-opacity:1;" d="M 53.585938 22.457031 C 53.757812 22.574219 53.894531 22.683594 53.992188 22.871094 C 54.039062 23.109375 54.027344 23.339844 53.921875 23.5625 C 53.761719 23.761719 53.597656 23.859375 53.347656 23.90625 C 53.109375 23.921875 52.933594 23.855469 52.753906 23.703125 C 52.570312 23.472656 52.542969 23.285156 52.554688 22.988281 C 52.582031 22.785156 52.664062 22.664062 52.824219 22.535156 C 53.074219 22.367188 53.300781 22.359375 53.585938 22.457031 Z M 53.585938 22.457031 "/>
<path style=" stroke:none;fill-rule:nonzero;fill:rgb(98.039216%,98.431373%,98.431373%);fill-opacity:1;" d="M 29.246094 11.992188 C 29.421875 12.109375 29.554688 12.21875 29.652344 12.40625 C 29.699219 12.644531 29.691406 12.878906 29.585938 13.097656 C 29.425781 13.296875 29.261719 13.398438 29.011719 13.445312 C 28.773438 13.457031 28.59375 13.394531 28.417969 13.242188 C 28.234375 13.011719 28.203125 12.820312 28.214844 12.527344 C 28.246094 12.320312 28.328125 12.203125 28.488281 12.070312 C 28.738281 11.90625 28.964844 11.894531 29.246094 11.992188 Z M 29.246094 11.992188 "/>
<path style=" stroke:none;fill-rule:nonzero;fill:rgb(98.431373%,98.431373%,98.431373%);fill-opacity:1;" d="M 31.175781 11.996094 C 31.351562 12.117188 31.480469 12.257812 31.578125 12.453125 C 31.613281 12.710938 31.585938 12.933594 31.460938 13.160156 C 31.324219 13.332031 31.144531 13.40625 30.933594 13.441406 C 30.695312 13.457031 30.523438 13.390625 30.339844 13.242188 C 30.171875 13.066406 30.144531 12.921875 30.136719 12.683594 C 30.144531 12.449219 30.171875 12.304688 30.339844 12.128906 C 30.605469 11.917969 30.855469 11.882812 31.175781 11.996094 Z M 31.175781 11.996094 "/>
<path style=" stroke:none;fill-rule:nonzero;fill:rgb(98.431373%,98.431373%,98.431373%);fill-opacity:1;" d="M 66.925781 11.976562 C 67.144531 12.074219 67.277344 12.179688 67.375 12.40625 C 67.410156 12.664062 67.410156 12.882812 67.304688 13.125 C 67.113281 13.320312 66.910156 13.433594 66.636719 13.449219 C 66.378906 13.414062 66.25 13.3125 66.078125 13.121094 C 65.933594 12.910156 65.925781 12.703125 65.953125 12.453125 C 66.152344 12.058594 66.488281 11.835938 66.925781 11.976562 Z M 66.925781 11.976562 "/>
</g>
</svg>
