<?xml version="1.0" encoding="UTF-8"?>
<svg xmlns="http://www.w3.org/2000/svg" xmlns:xlink="http://www.w3.org/1999/xlink" width="166px" height="48px" viewBox="0 0 166 48" version="1.1">
<g id="surface1">
<path style=" stroke:none;fill-rule:nonzero;fill:rgb(98.039216%,99.215686%,99.215686%);fill-opacity:1;" d="M 0 0 C 54.78125 0 109.558594 0 166 0 C 166 15.839844 166 31.679688 166 48 C 111.21875 48 56.441406 48 0 48 C 0 32.160156 0 16.320312 0 0 Z M 0 0 "/>
<path style=" stroke:none;fill-rule:nonzero;fill:rgb(96.862745%,98.823529%,99.215686%);fill-opacity:1;" d="M 14.625 -0.121094 C 16.382812 -0.117188 16.382812 -0.117188 18.171875 -0.113281 C 19.136719 -0.113281 19.136719 -0.113281 20.125 -0.113281 C 22.261719 -0.113281 24.398438 -0.105469 26.535156 -0.0976562 C 28.011719 -0.0976562 29.492188 -0.09375 30.96875 -0.09375 C 34.867188 -0.0898438 38.765625 -0.078125 42.664062 -0.0703125 C 46.636719 -0.0585938 50.613281 -0.0546875 54.585938 -0.0507812 C 62.390625 -0.0390625 70.195312 -0.0195312 78 0 C 77.703125 1.457031 77.402344 2.910156 77.09375 4.363281 C 76.84375 5.578125 76.84375 5.578125 76.585938 6.816406 C 75.519531 10.800781 73.0625 12.40625 70 15 C 71.507812 19.980469 74.554688 23.242188 78 27 C 76.515625 27.496094 76.515625 27.496094 75 28 C 73.828125 26.714844 72.660156 25.421875 71.5 24.125 C 70.851562 23.40625 70.199219 22.6875 69.53125 21.945312 C 68 20 68 20 68 18 C 64.648438 20.234375 63.183594 21.261719 62.1875 25.25 C 62.09375 26.609375 62.09375 26.609375 62 28 C 61.011719 28 60.019531 28 59 28 C 58.339844 25.691406 57.679688 23.378906 57 21 C 56.011719 21.328125 55.019531 21.660156 54 22 C 53.691406 22.640625 53.382812 23.277344 53.0625 23.9375 C 52 26 52 26 50.375 27.25 C 46.882812 28.351562 43.59375 28.578125 40 28 C 34.5 25 34.5 25 33 22 C 32.769531 19.960938 32.589844 17.917969 32.4375 15.875 C 32.3125 14.230469 32.3125 14.230469 32.183594 12.554688 C 32.09375 11.289062 32.09375 11.289062 32 10 C 27.667969 13.160156 24.546875 15.855469 23.597656 21.320312 C 23.34375 23.546875 23.140625 25.765625 23 28 C 22.011719 28 21.019531 28 20 28 C 19.980469 26.742188 19.957031 25.484375 19.9375 24.1875 C 19.386719 18.632812 16.683594 15.0625 13.398438 10.675781 C 11.648438 7.328125 12.046875 5.582031 13 2 C 12.339844 1.671875 11.679688 1.339844 11 1 C 12 0 12 0 14.625 -0.121094 Z M 14.625 -0.121094 "/>
<path style=" stroke:none;fill-rule:nonzero;fill:rgb(39.607844%,71.372551%,90.196079%);fill-opacity:1;" d="M 110 6 C 114.429688 5.90625 118.855469 5.828125 123.289062 5.78125 C 124.792969 5.761719 126.296875 5.734375 127.800781 5.699219 C 129.972656 5.648438 132.144531 5.625 134.316406 5.609375 C 135.621094 5.589844 136.925781 5.566406 138.269531 5.546875 C 142.917969 6.113281 145.191406 7.304688 149 10 C 149.9375 13.25 149.9375 13.25 150 16 C 150.328125 12.699219 150.660156 9.398438 151 6 C 152.320312 6 153.640625 6 155 6 C 155 13.261719 155 20.519531 155 28 C 153.351562 27.671875 151.699219 27.339844 150 27 C 147.273438 27.378906 147.273438 27.378906 145 28 C 141 23.25 141 23.25 141 21 C 138.359375 21 135.71875 21 133 21 C 133 23.308594 133 25.621094 133 28 C 125.410156 28 117.820312 28 110 28 C 110 20.738281 110 13.480469 110 6 Z M 110 6 "/>
<path style=" stroke:none;fill-rule:nonzero;fill:rgb(94.117647%,98.431373%,99.215686%);fill-opacity:1;" d="M 110 6 C 116.601562 6 123.199219 6 130 6 C 130 13.261719 130 20.519531 130 28 C 123.398438 28 116.800781 28 110 28 C 110 20.738281 110 13.480469 110 6 Z M 110 6 "/>
<path style=" stroke:none;fill-rule:nonzero;fill:rgb(94.117647%,98.431373%,99.215686%);fill-opacity:1;" d="M 47 8 C 52.554688 11.289062 52.554688 11.289062 53.515625 14.972656 C 53.703125 18.53125 53.296875 20.613281 51.125 23.4375 C 47.304688 26.246094 44.757812 26.484375 40 26 C 37.074219 24.007812 35.414062 22.550781 34.484375 19.0625 C 34.296875 16.820312 34.382812 15.167969 35 13 C 38.621094 8.863281 41.476562 6.847656 47 8 Z M 47 8 "/>
<path style=" stroke:none;fill-rule:nonzero;fill:rgb(92.156863%,98.823529%,99.607843%);fill-opacity:1;" d="M 151 6 C 152.320312 6 153.640625 6 155 6 C 155 13.261719 155 20.519531 155 28 C 153.351562 27.671875 151.699219 27.339844 150 27 C 149.011719 27 148.019531 27 147 27 C 144.75 24.6875 144.75 24.6875 143 22 C 144 19 144 19 145.5625 17.6875 C 147.667969 15.214844 147.210938 13.136719 147 10 C 147.660156 10 148.320312 10 149 10 C 149.328125 11.980469 149.660156 13.960938 150 16 C 150.328125 12.699219 150.660156 9.398438 151 6 Z M 151 6 "/>
<path style=" stroke:none;fill-rule:nonzero;fill:rgb(40.000001%,70.980394%,89.019608%);fill-opacity:1;" d="M 48 6 C 53.5 9 53.5 9 55 12 C 55.644531 17.207031 55.917969 20.816406 52.625 25.0625 C 48.476562 28.125 45.101562 28.710938 40 28 C 34.5 25 34.5 25 33 22 C 32.355469 16.792969 32.082031 13.183594 35.375 8.9375 C 39.523438 5.875 42.898438 5.289062 48 6 Z M 35 13 C 34.1875 15.851562 34.238281 18.140625 35 21 C 36.898438 24.148438 36.898438 24.148438 40 26 C 44.195312 26.515625 47.480469 26.476562 51 24 C 53.117188 20.820312 53.542969 18.804688 53.445312 15.007812 C 53.082031 12.609375 53.082031 12.609375 50.375 10 C 43.902344 6.164062 39.933594 7.363281 35 13 Z M 35 13 "/>
<path style=" stroke:none;fill-rule:nonzero;fill:rgb(32.549021%,69.01961%,90.196079%);fill-opacity:1;" d="M 110 6 C 114.949219 6 119.898438 6 125 6 C 125 6.660156 125 7.320312 125 8 C 120.710938 8 116.421875 8 112 8 C 112 10.640625 112 13.28125 112 16 C 115.960938 16 119.921875 16 124 16 C 124 16.660156 124 17.320312 124 18 C 120.039062 18 116.078125 18 112 18 C 112 20.640625 112 23.28125 112 26 C 116.621094 26 121.238281 26 126 26 C 126 26.660156 126 27.320312 126 28 C 120.71875 28 115.441406 28 110 28 C 110 20.738281 110 13.480469 110 6 Z M 110 6 "/>
<path style=" stroke:none;fill-rule:nonzero;fill:rgb(93.333334%,98.823529%,99.215686%);fill-opacity:1;" d="M 133 8 C 134.421875 7.9375 135.847656 7.875 137.3125 7.8125 C 138.511719 7.761719 138.511719 7.761719 139.738281 7.707031 C 142 8 142 8 143.765625 9.355469 C 145 11 145 11 145.4375 13.5 C 145 16 145 16 143.5 17.8125 C 139.878906 19.535156 136.988281 19.199219 133 19 C 133 15.371094 133 11.738281 133 8 Z M 133 8 "/>
<path style=" stroke:none;fill-rule:nonzero;fill:rgb(32.941177%,69.803923%,91.37255%);fill-opacity:1;" d="M 60 6 C 60.660156 6 61.320312 6 62 6 C 62.328125 9.960938 62.660156 13.921875 63 18 C 66.960938 14.039062 70.921875 10.078125 75 6 C 75.660156 6.328125 76.320312 6.660156 77 7 C 74.691406 9.640625 72.378906 12.28125 70 15 C 71.507812 19.980469 74.554688 23.242188 78 27 C 77.011719 27.328125 76.019531 27.660156 75 28 C 73.828125 26.714844 72.660156 25.421875 71.5 24.125 C 70.851562 23.40625 70.199219 22.6875 69.53125 21.945312 C 68 20 68 20 68 18 C 64.648438 20.234375 63.183594 21.261719 62.1875 25.25 C 62.125 26.15625 62.0625 27.066406 62 28 C 61.339844 28 60.679688 28 60 28 C 60 20.738281 60 13.480469 60 6 Z M 60 6 "/>
<path style=" stroke:none;fill-rule:nonzero;fill:rgb(42.745098%,72.941178%,90.196079%);fill-opacity:1;" d="M 86 6 C 89 7 89 7 90.824219 10.378906 C 91.457031 11.769531 92.078125 13.164062 92.6875 14.5625 C 93.007812 15.273438 93.328125 15.984375 93.65625 16.71875 C 94.449219 18.472656 95.226562 20.234375 96 22 C 98.640625 18.808594 100.144531 15.585938 101.6875 11.75 C 102.125 10.671875 102.5625 9.59375 103.011719 8.484375 C 103.335938 7.664062 103.664062 6.84375 104 6 C 104.988281 6 105.980469 6 107 6 C 105.644531 10.410156 103.917969 14.546875 102.019531 18.742188 C 100.632812 21.808594 99.316406 24.902344 98 28 C 97.011719 28 96.019531 28 95 28 C 93.679688 25.273438 92.371094 22.542969 91.0625 19.8125 C 90.6875 19.042969 90.316406 18.273438 89.929688 17.484375 C 88.117188 13.675781 86.535156 10.230469 86 6 Z M 86 6 "/>
<path style=" stroke:none;fill-rule:nonzero;fill:rgb(87.843138%,87.843138%,87.843138%);fill-opacity:1;" d="M 101 36 C 104.960938 36 108.921875 36 113 36 C 113 38.96875 113 41.941406 113 45 C 109.871094 45.78125 107.859375 46.113281 104.75 46.0625 C 102.894531 46.03125 102.894531 46.03125 101 46 C 101.574219 43.613281 102.222656 41.332031 103 39 C 102.339844 38.671875 101.679688 38.339844 101 38 C 101 37.339844 101 36.679688 101 36 Z M 101 36 "/>
<path style=" stroke:none;fill-rule:nonzero;fill:rgb(41.568628%,72.156864%,89.411765%);fill-opacity:1;" d="M 12 6 C 15.710938 7.445312 16.949219 9.121094 18.75 12.625 C 19.179688 13.441406 19.605469 14.257812 20.046875 15.101562 C 20.519531 16.042969 20.519531 16.042969 21 17 C 23.222656 14.304688 25.234375 11.632812 27.125 8.6875 C 27.742188 7.800781 28.363281 6.914062 29 6 C 29.660156 6 30.320312 6 31 6 C 29.871094 9.289062 28.402344 11.914062 26.4375 14.75 C 23.652344 19.039062 23.128906 22.957031 23 28 C 22.011719 28 21.019531 28 20 28 C 19.980469 26.742188 19.957031 25.484375 19.9375 24.1875 C 19.367188 18.59375 16.664062 14.816406 13.496094 10.285156 C 12 8 12 8 12 6 Z M 12 6 "/>
<path style=" stroke:none;fill-rule:nonzero;fill:rgb(83.137256%,94.901961%,99.607843%);fill-opacity:1;" d="M 59 6 C 59.328125 6 59.660156 6 60 6 C 60 13.261719 60 20.519531 60 28 C 58.253906 25.378906 57.613281 23.960938 57 21 C 56.011719 21.496094 56.011719 21.496094 55 22 C 54.972656 21.335938 54.949219 20.671875 54.921875 19.988281 C 54.566406 14.457031 54.167969 11.035156 50 7 C 54.675781 8.476562 54.675781 8.476562 56.3125 11.125 C 56.539062 11.742188 56.765625 12.363281 57 13 C 57.660156 10.691406 58.320312 8.378906 59 6 Z M 59 6 "/>
<path style=" stroke:none;fill-rule:nonzero;fill:rgb(42.352942%,72.549021%,91.37255%);fill-opacity:1;" d="M 152 6 C 152.988281 6 153.980469 6 155 6 C 155 13.261719 155 20.519531 155 28 C 154.011719 28 153.019531 28 152 28 C 152 20.738281 152 13.480469 152 6 Z M 152 6 "/>
<path style=" stroke:none;fill-rule:nonzero;fill:rgb(40.392157%,70.980394%,88.627452%);fill-opacity:1;" d="M 75 6 C 75.660156 6.328125 76.320312 6.660156 77 7 C 74.691406 9.640625 72.378906 12.28125 70 15 C 71.507812 19.980469 74.554688 23.242188 78 27 C 77.011719 27.328125 76.019531 27.660156 75 28 C 71.667969 24.574219 68.640625 21.335938 66.5625 17 C 67.296875 11.953125 71.265625 9.21875 75 6 Z M 75 6 "/>
<path style=" stroke:none;fill-rule:nonzero;fill:rgb(87.058824%,87.058824%,87.058824%);fill-opacity:1;" d="M 59 36 C 60.320312 36.328125 61.640625 36.660156 63 37 C 63.660156 39.640625 64.320312 42.28125 65 45 C 62.03125 45 59.058594 45 56 45 C 56.558594 41.65625 57.351562 38.96875 59 36 Z M 59 36 "/>
<path style=" stroke:none;fill-rule:nonzero;fill:rgb(85.882354%,85.882354%,85.882354%);fill-opacity:1;" d="M 67 36 C 67.988281 36 68.980469 36 70 36 C 70.660156 37.320312 71.320312 38.640625 72 40 C 72.328125 38.679688 72.660156 37.359375 73 36 C 73.660156 36 74.320312 36 75 36 C 75 38.96875 75 41.941406 75 45 C 72 45 72 45 70.3125 43.5 C 69.878906 43.003906 69.445312 42.511719 69 42 C 69 42.988281 69 43.980469 69 45 C 68.339844 45 67.679688 45 67 45 C 67 42.03125 67 39.058594 67 36 Z M 67 36 "/>
<path style=" stroke:none;fill-rule:nonzero;fill:rgb(88.627452%,88.627452%,88.627452%);fill-opacity:1;" d="M 80 36 C 81.320312 36 82.640625 36 84 36 C 85.5 39.371094 86 41.203125 86 45 C 83.359375 45 80.71875 45 78 45 C 77.796875 41.375 78.140625 39.136719 80 36 Z M 80 36 "/>
<path style=" stroke:none;fill-rule:nonzero;fill:rgb(92.54902%,92.54902%,92.54902%);fill-opacity:1;" d="M 110 36 C 110.988281 36 111.980469 36 113 36 C 113 38.96875 113 41.941406 113 45 C 111.679688 45 110.359375 45 109 45 C 109 44.339844 109 43.679688 109 43 C 107.679688 42.671875 106.359375 42.339844 105 42 C 105.328125 41.339844 105.660156 40.679688 106 40 C 106.660156 40 107.320312 40 108 40 C 108 39.339844 108 38.679688 108 38 C 108.660156 38 109.320312 38 110 38 C 110 37.339844 110 36.679688 110 36 Z M 110 36 "/>
<path style=" stroke:none;fill-rule:nonzero;fill:rgb(88.235295%,88.235295%,88.235295%);fill-opacity:1;" d="M 88 36 C 88.988281 36 89.980469 36 91 36 C 91 38.308594 91 40.621094 91 43 C 92.320312 43 93.640625 43 95 43 C 95 43.988281 95 44.980469 95 46 C 92.691406 46 90.378906 46 88 46 C 88 42.699219 88 39.398438 88 36 Z M 88 36 "/>
<path style=" stroke:none;fill-rule:nonzero;fill:rgb(90.588236%,98.431373%,99.607843%);fill-opacity:1;" d="M 28 5 C 29.320312 5 30.640625 5 32 5 C 32 5.660156 32 6.320312 32 7 C 32.929688 6.691406 32.929688 6.691406 33.875 6.375 C 34.578125 6.25 35.277344 6.128906 36 6 C 36.660156 6.660156 37.320312 7.320312 38 8 C 36.351562 9.320312 34.699219 10.640625 33 12 C 32.671875 11.339844 32.339844 10.679688 32 10 C 30.679688 10.988281 29.359375 11.980469 28 13 C 29.875 8.25 29.875 8.25 31 6 C 30.011719 6.328125 29.019531 6.660156 28 7 C 28 6.339844 28 5.679688 28 5 Z M 28 5 "/>
<path style=" stroke:none;fill-rule:nonzero;fill:rgb(81.568629%,95.294118%,99.607843%);fill-opacity:1;" d="M 68 18 C 68.328125 18.988281 68.660156 19.980469 69 21 C 67.679688 21 66.359375 21 65 21 C 64.671875 23.308594 64.339844 25.621094 64 28 C 63.339844 28 62.679688 28 62 28 C 61.664062 24.296875 61.523438 22.605469 63.875 19.625 C 66 18 66 18 68 18 Z M 68 18 "/>
<path style=" stroke:none;fill-rule:nonzero;fill:rgb(85.882354%,85.882354%,85.882354%);fill-opacity:1;" d="M 80 36 C 80.988281 36 81.980469 36 83 36 C 83 36.988281 83 37.980469 83 39 C 82.339844 39 81.679688 39 81 39 C 81.328125 40.320312 81.660156 41.640625 82 43 C 81.011719 43 80.019531 43 79 43 C 78.671875 43.660156 78.339844 44.320312 78 45 C 77.796875 41.375 78.140625 39.136719 80 36 Z M 80 36 "/>
<path style=" stroke:none;fill-rule:nonzero;fill:rgb(82.352942%,94.117647%,99.215686%);fill-opacity:1;" d="M 99 23 C 99.6875 24.8125 99.6875 24.8125 100 27 C 98.8125 28.8125 98.8125 28.8125 97 30 C 94.8125 29.6875 94.8125 29.6875 93 29 C 93 27.351562 93 25.699219 93 24 C 93.660156 25.320312 94.320312 26.640625 95 28 C 95.988281 28 96.980469 28 98 28 C 98.328125 26.351562 98.660156 24.699219 99 23 Z M 99 23 "/>
<path style=" stroke:none;fill-rule:nonzero;fill:rgb(36.078432%,71.764708%,91.37255%);fill-opacity:1;" d="M 93 21 C 93.988281 21.328125 94.980469 21.660156 96 22 C 96 22.660156 96 23.320312 96 24 C 96.660156 24 97.320312 24 98 24 C 98 25.320312 98 26.640625 98 28 C 97.011719 28 96.019531 28 95 28 C 93.539062 25.351562 93 24.105469 93 21 Z M 93 21 "/>
<path style=" stroke:none;fill-rule:nonzero;fill:rgb(86.666667%,98.431373%,99.607843%);fill-opacity:1;" d="M 130 5 C 134.949219 5 139.898438 5 145 5 C 145.328125 5.988281 145.660156 6.980469 146 8 C 140.71875 7.339844 135.441406 6.679688 130 6 C 130 5.671875 130 5.339844 130 5 Z M 130 5 "/>
<path style=" stroke:none;fill-rule:nonzero;fill:rgb(85.882354%,97.647059%,100%);fill-opacity:1;" d="M 71 13 C 71.328125 13.660156 71.660156 14.320312 72 15 C 71.671875 15.660156 71.339844 16.320312 71 17 C 71.660156 17 72.320312 17 73 17 C 73.328125 18.648438 73.660156 20.300781 74 22 C 72.351562 20.351562 70.699219 18.699219 69 17 C 69.660156 15.679688 70.320312 14.359375 71 13 Z M 71 13 "/>
<path style=" stroke:none;fill-rule:nonzero;fill:rgb(84.313726%,97.254902%,99.607843%);fill-opacity:1;" d="M 18 12 C 20.476562 12.988281 20.476562 12.988281 23 14 C 23 13.339844 23 12.679688 23 12 C 23.660156 12.328125 24.320312 12.660156 25 13 C 23.515625 15.476562 23.515625 15.476562 22 18 C 19.753906 15.949219 18.996094 14.992188 18 12 Z M 18 12 "/>
<path style=" stroke:none;fill-rule:nonzero;fill:rgb(41.568628%,70.588237%,86.274511%);fill-opacity:1;" d="M 141 21 C 144.828125 22.453125 146.121094 24.429688 148 28 C 147.011719 28 146.019531 28 145 28 C 141 23.65625 141 23.65625 141 21 Z M 141 21 "/>
<path style=" stroke:none;fill-rule:nonzero;fill:rgb(39.607844%,70.980394%,89.019608%);fill-opacity:1;" d="M 86 6 C 86.988281 6.328125 87.980469 6.660156 89 7 C 89.328125 9.308594 89.660156 11.621094 90 14 C 87.101562 11.605469 86.5 9.6875 86 6 Z M 86 6 "/>
</g>
</svg>
